<mxfile host="app.diagrams.net" agent="Mozilla/5.0 (Windows NT 10.0; Win64; x64) AppleWebKit/537.36 (KHTML, like Gecko) Chrome/129.0.0.0 Safari/537.36" version="24.8.0">
  <diagram id="C5RBs43oDa-KdzZeNtuy" name="Page-1">
    <mxGraphModel dx="1434" dy="746" grid="1" gridSize="10" guides="1" tooltips="1" connect="1" arrows="1" fold="1" page="1" pageScale="1" pageWidth="827" pageHeight="1169" math="0" shadow="0">
      <root>
        <mxCell id="WIyWlLk6GJQsqaUBKTNV-0" />
        <mxCell id="WIyWlLk6GJQsqaUBKTNV-1" parent="WIyWlLk6GJQsqaUBKTNV-0" />
        <mxCell id="mCpJwtPp_-HUknpi7rln-1" value="" style="edgeStyle=orthogonalEdgeStyle;rounded=0;orthogonalLoop=1;jettySize=auto;html=1;" edge="1" parent="WIyWlLk6GJQsqaUBKTNV-1" source="WIyWlLk6GJQsqaUBKTNV-3" target="mCpJwtPp_-HUknpi7rln-0">
          <mxGeometry relative="1" as="geometry" />
        </mxCell>
        <mxCell id="mCpJwtPp_-HUknpi7rln-8" style="edgeStyle=orthogonalEdgeStyle;rounded=0;orthogonalLoop=1;jettySize=auto;html=1;" edge="1" parent="WIyWlLk6GJQsqaUBKTNV-1" source="WIyWlLk6GJQsqaUBKTNV-3" target="mCpJwtPp_-HUknpi7rln-3">
          <mxGeometry relative="1" as="geometry" />
        </mxCell>
        <mxCell id="WIyWlLk6GJQsqaUBKTNV-3" value="设置程序、试剂、病例、玻片、打印标签、粘贴、放置玻片架等前置操作" style="rounded=1;whiteSpace=wrap;html=1;fontSize=12;glass=0;strokeWidth=1;shadow=0;" parent="WIyWlLk6GJQsqaUBKTNV-1" vertex="1">
          <mxGeometry x="310" y="130" width="230" height="50" as="geometry" />
        </mxCell>
        <mxCell id="mCpJwtPp_-HUknpi7rln-26" style="edgeStyle=orthogonalEdgeStyle;rounded=0;orthogonalLoop=1;jettySize=auto;html=1;entryX=0.25;entryY=0;entryDx=0;entryDy=0;" edge="1" parent="WIyWlLk6GJQsqaUBKTNV-1" source="WIyWlLk6GJQsqaUBKTNV-11" target="mCpJwtPp_-HUknpi7rln-25">
          <mxGeometry relative="1" as="geometry" />
        </mxCell>
        <mxCell id="WIyWlLk6GJQsqaUBKTNV-11" value="扫描试剂架" style="rounded=1;whiteSpace=wrap;html=1;fontSize=12;glass=0;strokeWidth=1;shadow=0;" parent="WIyWlLk6GJQsqaUBKTNV-1" vertex="1">
          <mxGeometry x="290" y="290" width="120" height="40" as="geometry" />
        </mxCell>
        <mxCell id="mCpJwtPp_-HUknpi7rln-9" style="edgeStyle=orthogonalEdgeStyle;rounded=0;orthogonalLoop=1;jettySize=auto;html=1;entryX=0.5;entryY=0;entryDx=0;entryDy=0;" edge="1" parent="WIyWlLk6GJQsqaUBKTNV-1" source="mCpJwtPp_-HUknpi7rln-0" target="mCpJwtPp_-HUknpi7rln-7">
          <mxGeometry relative="1" as="geometry" />
        </mxCell>
        <mxCell id="mCpJwtPp_-HUknpi7rln-0" value="插入玻片架" style="whiteSpace=wrap;html=1;rounded=1;glass=0;strokeWidth=1;shadow=0;" vertex="1" parent="WIyWlLk6GJQsqaUBKTNV-1">
          <mxGeometry x="440" y="220" width="120" height="40" as="geometry" />
        </mxCell>
        <mxCell id="mCpJwtPp_-HUknpi7rln-5" value="" style="edgeStyle=orthogonalEdgeStyle;rounded=0;orthogonalLoop=1;jettySize=auto;html=1;" edge="1" parent="WIyWlLk6GJQsqaUBKTNV-1" source="mCpJwtPp_-HUknpi7rln-3" target="WIyWlLk6GJQsqaUBKTNV-11">
          <mxGeometry relative="1" as="geometry" />
        </mxCell>
        <mxCell id="mCpJwtPp_-HUknpi7rln-3" value="插入试剂架" style="whiteSpace=wrap;html=1;rounded=1;glass=0;strokeWidth=1;shadow=0;" vertex="1" parent="WIyWlLk6GJQsqaUBKTNV-1">
          <mxGeometry x="290" y="220" width="120" height="40" as="geometry" />
        </mxCell>
        <mxCell id="mCpJwtPp_-HUknpi7rln-12" style="edgeStyle=orthogonalEdgeStyle;rounded=0;orthogonalLoop=1;jettySize=auto;html=1;entryX=0.5;entryY=0;entryDx=0;entryDy=0;" edge="1" parent="WIyWlLk6GJQsqaUBKTNV-1" source="mCpJwtPp_-HUknpi7rln-7" target="mCpJwtPp_-HUknpi7rln-10">
          <mxGeometry relative="1" as="geometry">
            <mxPoint x="500" y="380" as="targetPoint" />
          </mxGeometry>
        </mxCell>
        <mxCell id="mCpJwtPp_-HUknpi7rln-7" value="锁定玻片架" style="whiteSpace=wrap;html=1;rounded=1;glass=0;strokeWidth=1;shadow=0;" vertex="1" parent="WIyWlLk6GJQsqaUBKTNV-1">
          <mxGeometry x="440" y="290" width="120" height="40" as="geometry" />
        </mxCell>
        <mxCell id="mCpJwtPp_-HUknpi7rln-27" style="edgeStyle=orthogonalEdgeStyle;rounded=0;orthogonalLoop=1;jettySize=auto;html=1;entryX=0.75;entryY=0;entryDx=0;entryDy=0;" edge="1" parent="WIyWlLk6GJQsqaUBKTNV-1" source="mCpJwtPp_-HUknpi7rln-10" target="mCpJwtPp_-HUknpi7rln-25">
          <mxGeometry relative="1" as="geometry" />
        </mxCell>
        <mxCell id="mCpJwtPp_-HUknpi7rln-10" value="扫描玻片架" style="rounded=1;whiteSpace=wrap;html=1;fontSize=12;glass=0;strokeWidth=1;shadow=0;" vertex="1" parent="WIyWlLk6GJQsqaUBKTNV-1">
          <mxGeometry x="440" y="360" width="120" height="40" as="geometry" />
        </mxCell>
        <mxCell id="mCpJwtPp_-HUknpi7rln-37" value="" style="edgeStyle=orthogonalEdgeStyle;rounded=0;orthogonalLoop=1;jettySize=auto;html=1;" edge="1" parent="WIyWlLk6GJQsqaUBKTNV-1" source="mCpJwtPp_-HUknpi7rln-21" target="mCpJwtPp_-HUknpi7rln-36">
          <mxGeometry relative="1" as="geometry" />
        </mxCell>
        <mxCell id="mCpJwtPp_-HUknpi7rln-21" value="运行程序、下发命令、安排流程" style="rounded=1;whiteSpace=wrap;html=1;fontSize=12;glass=0;strokeWidth=1;shadow=0;" vertex="1" parent="WIyWlLk6GJQsqaUBKTNV-1">
          <mxGeometry x="330" y="620" width="187.5" height="40" as="geometry" />
        </mxCell>
        <mxCell id="mCpJwtPp_-HUknpi7rln-24" style="edgeStyle=orthogonalEdgeStyle;rounded=0;orthogonalLoop=1;jettySize=auto;html=1;entryX=0.5;entryY=0;entryDx=0;entryDy=0;" edge="1" parent="WIyWlLk6GJQsqaUBKTNV-1" source="mCpJwtPp_-HUknpi7rln-22" target="mCpJwtPp_-HUknpi7rln-21">
          <mxGeometry relative="1" as="geometry" />
        </mxCell>
        <mxCell id="mCpJwtPp_-HUknpi7rln-31" value="是" style="edgeLabel;html=1;align=center;verticalAlign=middle;resizable=0;points=[];" vertex="1" connectable="0" parent="mCpJwtPp_-HUknpi7rln-24">
          <mxGeometry x="0.2" y="-3" relative="1" as="geometry">
            <mxPoint as="offset" />
          </mxGeometry>
        </mxCell>
        <mxCell id="mCpJwtPp_-HUknpi7rln-33" style="edgeStyle=orthogonalEdgeStyle;rounded=0;orthogonalLoop=1;jettySize=auto;html=1;entryX=0;entryY=0.5;entryDx=0;entryDy=0;" edge="1" parent="WIyWlLk6GJQsqaUBKTNV-1" source="mCpJwtPp_-HUknpi7rln-22" target="mCpJwtPp_-HUknpi7rln-32">
          <mxGeometry relative="1" as="geometry" />
        </mxCell>
        <mxCell id="mCpJwtPp_-HUknpi7rln-58" value="否" style="edgeLabel;html=1;align=center;verticalAlign=middle;resizable=0;points=[];" vertex="1" connectable="0" parent="mCpJwtPp_-HUknpi7rln-33">
          <mxGeometry x="-0.024" relative="1" as="geometry">
            <mxPoint as="offset" />
          </mxGeometry>
        </mxCell>
        <mxCell id="mCpJwtPp_-HUknpi7rln-22" value="检查通过" style="rhombus;whiteSpace=wrap;html=1;rounded=1;glass=0;strokeWidth=1;shadow=0;" vertex="1" parent="WIyWlLk6GJQsqaUBKTNV-1">
          <mxGeometry x="385" y="520" width="80" height="60" as="geometry" />
        </mxCell>
        <mxCell id="mCpJwtPp_-HUknpi7rln-28" value="" style="edgeStyle=orthogonalEdgeStyle;rounded=0;orthogonalLoop=1;jettySize=auto;html=1;" edge="1" parent="WIyWlLk6GJQsqaUBKTNV-1" source="mCpJwtPp_-HUknpi7rln-25" target="mCpJwtPp_-HUknpi7rln-22">
          <mxGeometry relative="1" as="geometry" />
        </mxCell>
        <mxCell id="mCpJwtPp_-HUknpi7rln-25" value="试剂检查、兼容性检查等" style="rounded=1;whiteSpace=wrap;html=1;fontSize=12;glass=0;strokeWidth=1;shadow=0;" vertex="1" parent="WIyWlLk6GJQsqaUBKTNV-1">
          <mxGeometry x="348.75" y="440" width="152.5" height="40" as="geometry" />
        </mxCell>
        <mxCell id="mCpJwtPp_-HUknpi7rln-34" style="edgeStyle=orthogonalEdgeStyle;rounded=0;orthogonalLoop=1;jettySize=auto;html=1;entryX=1;entryY=0.5;entryDx=0;entryDy=0;" edge="1" parent="WIyWlLk6GJQsqaUBKTNV-1" source="mCpJwtPp_-HUknpi7rln-32" target="WIyWlLk6GJQsqaUBKTNV-3">
          <mxGeometry relative="1" as="geometry">
            <Array as="points">
              <mxPoint x="690" y="155" />
            </Array>
          </mxGeometry>
        </mxCell>
        <mxCell id="mCpJwtPp_-HUknpi7rln-35" style="edgeStyle=orthogonalEdgeStyle;rounded=0;orthogonalLoop=1;jettySize=auto;html=1;entryX=1;entryY=0.5;entryDx=0;entryDy=0;" edge="1" parent="WIyWlLk6GJQsqaUBKTNV-1" source="mCpJwtPp_-HUknpi7rln-32" target="mCpJwtPp_-HUknpi7rln-25">
          <mxGeometry relative="1" as="geometry">
            <Array as="points">
              <mxPoint x="690" y="460" />
            </Array>
          </mxGeometry>
        </mxCell>
        <mxCell id="mCpJwtPp_-HUknpi7rln-32" value="处理问题、或重新打印插入等操作" style="rounded=1;whiteSpace=wrap;html=1;fontSize=12;glass=0;strokeWidth=1;shadow=0;" vertex="1" parent="WIyWlLk6GJQsqaUBKTNV-1">
          <mxGeometry x="590" y="530" width="210" height="40" as="geometry" />
        </mxCell>
        <mxCell id="mCpJwtPp_-HUknpi7rln-45" value="" style="edgeStyle=orthogonalEdgeStyle;rounded=0;orthogonalLoop=1;jettySize=auto;html=1;" edge="1" parent="WIyWlLk6GJQsqaUBKTNV-1" source="mCpJwtPp_-HUknpi7rln-36" target="mCpJwtPp_-HUknpi7rln-44">
          <mxGeometry relative="1" as="geometry" />
        </mxCell>
        <mxCell id="mCpJwtPp_-HUknpi7rln-36" value="程序运行中" style="rounded=1;whiteSpace=wrap;html=1;fontSize=12;glass=0;strokeWidth=1;shadow=0;" vertex="1" parent="WIyWlLk6GJQsqaUBKTNV-1">
          <mxGeometry x="363.75" y="700" width="120" height="30" as="geometry" />
        </mxCell>
        <mxCell id="mCpJwtPp_-HUknpi7rln-38" value="运行事件收集" style="rounded=0;whiteSpace=wrap;html=1;" vertex="1" parent="WIyWlLk6GJQsqaUBKTNV-1">
          <mxGeometry x="603.75" y="660" width="110" height="30" as="geometry" />
        </mxCell>
        <mxCell id="mCpJwtPp_-HUknpi7rln-39" value="玻片温度" style="rounded=0;whiteSpace=wrap;html=1;" vertex="1" parent="WIyWlLk6GJQsqaUBKTNV-1">
          <mxGeometry x="603.75" y="710" width="110" height="30" as="geometry" />
        </mxCell>
        <mxCell id="mCpJwtPp_-HUknpi7rln-40" value="玻片流程执行进度" style="rounded=0;whiteSpace=wrap;html=1;" vertex="1" parent="WIyWlLk6GJQsqaUBKTNV-1">
          <mxGeometry x="603.75" y="760" width="110" height="30" as="geometry" />
        </mxCell>
        <mxCell id="mCpJwtPp_-HUknpi7rln-41" value="" style="endArrow=classic;html=1;rounded=0;exitX=1;exitY=0.5;exitDx=0;exitDy=0;entryX=0;entryY=0.5;entryDx=0;entryDy=0;" edge="1" parent="WIyWlLk6GJQsqaUBKTNV-1" source="mCpJwtPp_-HUknpi7rln-36" target="mCpJwtPp_-HUknpi7rln-38">
          <mxGeometry width="50" height="50" relative="1" as="geometry">
            <mxPoint x="623.75" y="850" as="sourcePoint" />
            <mxPoint x="673.75" y="800" as="targetPoint" />
          </mxGeometry>
        </mxCell>
        <mxCell id="mCpJwtPp_-HUknpi7rln-42" value="" style="endArrow=classic;html=1;rounded=0;exitX=1;exitY=0.5;exitDx=0;exitDy=0;entryX=0;entryY=0.5;entryDx=0;entryDy=0;" edge="1" parent="WIyWlLk6GJQsqaUBKTNV-1" source="mCpJwtPp_-HUknpi7rln-36" target="mCpJwtPp_-HUknpi7rln-39">
          <mxGeometry width="50" height="50" relative="1" as="geometry">
            <mxPoint x="493.75" y="725" as="sourcePoint" />
            <mxPoint x="613.75" y="685" as="targetPoint" />
          </mxGeometry>
        </mxCell>
        <mxCell id="mCpJwtPp_-HUknpi7rln-43" value="" style="endArrow=classic;html=1;rounded=0;exitX=1;exitY=0.5;exitDx=0;exitDy=0;entryX=0;entryY=0.5;entryDx=0;entryDy=0;" edge="1" parent="WIyWlLk6GJQsqaUBKTNV-1" source="mCpJwtPp_-HUknpi7rln-36" target="mCpJwtPp_-HUknpi7rln-40">
          <mxGeometry width="50" height="50" relative="1" as="geometry">
            <mxPoint x="503.75" y="735" as="sourcePoint" />
            <mxPoint x="623.75" y="695" as="targetPoint" />
          </mxGeometry>
        </mxCell>
        <mxCell id="mCpJwtPp_-HUknpi7rln-49" value="" style="edgeStyle=orthogonalEdgeStyle;rounded=0;orthogonalLoop=1;jettySize=auto;html=1;" edge="1" parent="WIyWlLk6GJQsqaUBKTNV-1" source="mCpJwtPp_-HUknpi7rln-44" target="mCpJwtPp_-HUknpi7rln-48">
          <mxGeometry relative="1" as="geometry" />
        </mxCell>
        <mxCell id="mCpJwtPp_-HUknpi7rln-44" value="运行结束" style="whiteSpace=wrap;html=1;rounded=1;glass=0;strokeWidth=1;shadow=0;" vertex="1" parent="WIyWlLk6GJQsqaUBKTNV-1">
          <mxGeometry x="363.75" y="765" width="120" height="25" as="geometry" />
        </mxCell>
        <mxCell id="mCpJwtPp_-HUknpi7rln-46" value="各个试剂容器容量" style="rounded=0;whiteSpace=wrap;html=1;" vertex="1" parent="WIyWlLk6GJQsqaUBKTNV-1">
          <mxGeometry x="603.75" y="810" width="110" height="30" as="geometry" />
        </mxCell>
        <mxCell id="mCpJwtPp_-HUknpi7rln-47" value="" style="endArrow=classic;html=1;rounded=0;exitX=1;exitY=0.75;exitDx=0;exitDy=0;entryX=0;entryY=0.5;entryDx=0;entryDy=0;" edge="1" parent="WIyWlLk6GJQsqaUBKTNV-1" source="mCpJwtPp_-HUknpi7rln-36" target="mCpJwtPp_-HUknpi7rln-46">
          <mxGeometry width="50" height="50" relative="1" as="geometry">
            <mxPoint x="623.75" y="650" as="sourcePoint" />
            <mxPoint x="673.75" y="600" as="targetPoint" />
          </mxGeometry>
        </mxCell>
        <mxCell id="mCpJwtPp_-HUknpi7rln-51" value="" style="edgeStyle=orthogonalEdgeStyle;rounded=0;orthogonalLoop=1;jettySize=auto;html=1;" edge="1" parent="WIyWlLk6GJQsqaUBKTNV-1" source="mCpJwtPp_-HUknpi7rln-48" target="mCpJwtPp_-HUknpi7rln-50">
          <mxGeometry relative="1" as="geometry" />
        </mxCell>
        <mxCell id="mCpJwtPp_-HUknpi7rln-48" value="卸载玻片架" style="whiteSpace=wrap;html=1;rounded=1;glass=0;strokeWidth=1;shadow=0;" vertex="1" parent="WIyWlLk6GJQsqaUBKTNV-1">
          <mxGeometry x="363.75" y="830" width="120" height="27.5" as="geometry" />
        </mxCell>
        <mxCell id="mCpJwtPp_-HUknpi7rln-50" value="其他步骤" style="whiteSpace=wrap;html=1;rounded=1;glass=0;strokeWidth=1;shadow=0;" vertex="1" parent="WIyWlLk6GJQsqaUBKTNV-1">
          <mxGeometry x="363.75" y="890" width="120" height="27.5" as="geometry" />
        </mxCell>
        <mxCell id="mCpJwtPp_-HUknpi7rln-56" style="edgeStyle=orthogonalEdgeStyle;rounded=0;orthogonalLoop=1;jettySize=auto;html=1;entryX=0.5;entryY=0;entryDx=0;entryDy=0;exitX=0.5;exitY=1;exitDx=0;exitDy=0;" edge="1" parent="WIyWlLk6GJQsqaUBKTNV-1" source="mCpJwtPp_-HUknpi7rln-52" target="mCpJwtPp_-HUknpi7rln-54">
          <mxGeometry relative="1" as="geometry">
            <Array as="points">
              <mxPoint x="284" y="90" />
              <mxPoint x="140" y="90" />
            </Array>
          </mxGeometry>
        </mxCell>
        <mxCell id="mCpJwtPp_-HUknpi7rln-52" value="建立连接" style="whiteSpace=wrap;html=1;rounded=1;glass=0;strokeWidth=1;shadow=0;" vertex="1" parent="WIyWlLk6GJQsqaUBKTNV-1">
          <mxGeometry x="223.75" y="30" width="120" height="40" as="geometry" />
        </mxCell>
        <mxCell id="mCpJwtPp_-HUknpi7rln-60" value="" style="edgeStyle=orthogonalEdgeStyle;rounded=0;orthogonalLoop=1;jettySize=auto;html=1;" edge="1" parent="WIyWlLk6GJQsqaUBKTNV-1" source="mCpJwtPp_-HUknpi7rln-54" target="mCpJwtPp_-HUknpi7rln-59">
          <mxGeometry relative="1" as="geometry" />
        </mxCell>
        <mxCell id="mCpJwtPp_-HUknpi7rln-54" value="基础数据通信、设备状态、大容量槽、仪器盖状态、混合站状态等、加热块状态、必要的初始化等" style="whiteSpace=wrap;html=1;rounded=1;glass=0;strokeWidth=1;shadow=0;" vertex="1" parent="WIyWlLk6GJQsqaUBKTNV-1">
          <mxGeometry x="50" y="130" width="180" height="120" as="geometry" />
        </mxCell>
        <mxCell id="mCpJwtPp_-HUknpi7rln-57" style="edgeStyle=orthogonalEdgeStyle;rounded=0;orthogonalLoop=1;jettySize=auto;html=1;entryX=0.5;entryY=0;entryDx=0;entryDy=0;exitX=0.5;exitY=1;exitDx=0;exitDy=0;" edge="1" parent="WIyWlLk6GJQsqaUBKTNV-1" source="mCpJwtPp_-HUknpi7rln-52" target="WIyWlLk6GJQsqaUBKTNV-3">
          <mxGeometry relative="1" as="geometry">
            <mxPoint x="294" y="80" as="sourcePoint" />
            <mxPoint x="150" y="170" as="targetPoint" />
            <Array as="points">
              <mxPoint x="284" y="90" />
              <mxPoint x="425" y="90" />
            </Array>
          </mxGeometry>
        </mxCell>
        <mxCell id="mCpJwtPp_-HUknpi7rln-59" value="常规设备相关状态实时监控（温度、容量、事件、异常等）&lt;span class=&quot;eusoft-eudic-chrome-extension-translate-content&quot;&gt;&lt;/span&gt;" style="whiteSpace=wrap;html=1;rounded=1;glass=0;strokeWidth=1;shadow=0;" vertex="1" parent="WIyWlLk6GJQsqaUBKTNV-1">
          <mxGeometry x="80" y="290" width="120" height="60" as="geometry" />
        </mxCell>
      </root>
    </mxGraphModel>
  </diagram>
</mxfile>
